<svg xmlns="http://www.w3.org/2000/svg" xmlns:xlink="http://www.w3.org/1999/xlink" fill="none" version="1.1" width="32" height="32" viewBox="0 0 32 32"><defs><clipPath id="master_svg0_37_01868"><rect x="0" y="0" width="32" height="32" rx="0"/></clipPath><clipPath id="master_svg1_37_01868/37_01839"><rect x="3" y="6.5" width="26" height="19" rx="0"/></clipPath></defs><g clip-path="url(#master_svg0_37_01868)"><g clip-path="url(#master_svg1_37_01868/37_01839)"><g><g><g><g><g><g><g transform="matrix(0.7071067690849304,-0.7071067690849304,0.7071067690849304,0.7071067690849304,-13.840007321157486,6.674161220949259)"><path d="M6.301951203613282,20.168924494506836C6.301951203613282,20.168924494506836,16.85302120361328,20.043813258506837,16.85302120361328,20.043813258506837C19.66742120361328,20.010441594506837,21.975921203613282,22.264867494506838,22.009321203613283,25.079217494506835C22.00972120361328,25.119497494506838,22.00972120361328,25.159777494506834,22.009321203613283,25.200067494506836C22.009321203613283,25.200067494506836,22.007921203613282,25.314887494506834,22.007921203613282,25.314887494506834C21.974221203613283,28.152727494506834,19.681921203613282,30.445047494506838,16.844121203613284,30.478747494506834C16.844121203613284,30.478747494506834,6.293031203613281,30.603847494506837,6.293031203613281,30.603847494506837C3.4786812036132813,30.637147494506834,1.1701511036132812,28.382757494506833,1.1367794416132813,25.568407494506836C1.1363017916132812,25.528127494506837,1.1363017916132812,25.487847494506838,1.1367794416132813,25.447567494506835C1.1367794416132813,25.447567494506835,1.1381409936132814,25.332737494506837,1.1381409936132814,25.332737494506837C1.1717912036132812,22.494897494506837,3.4641112036132813,20.202575494506835,6.301951203613282,20.168924494506836C6.301951203613282,20.168924494506836,6.301951203613282,20.168924494506836,6.301951203613282,20.168924494506836Z" fill-rule="evenodd" fill="#12D2AC" fill-opacity="1"/></g><g transform="matrix(0.7071067690849304,0.7071067690849304,-0.7071067690849304,0.7071067690849304,8.393842668178955,-9.696819035806435)"><path d="M21.05863759338379,5.284212841767395C21.05863759338379,5.284212841767395,31.49491759338379,5.407962603767395,31.49491759338379,5.407962603767395C34.39661759338379,5.442369603767395,36.740517593383785,7.786274603767395,36.77491759338379,10.687964603767394C36.80821759338379,13.502314603767395,34.55381759338379,15.810854603767394,31.739517593383788,15.844254603767395C31.69921759338379,15.844654603767395,31.65891759338379,15.844654603767395,31.61861759338379,15.844254603767395C31.61861759338379,15.844254603767395,21.182387593383787,15.720454603767395,21.182387593383787,15.720454603767395C18.28068759338379,15.686054603767396,15.93679079338379,13.342154603767394,15.902383356383789,10.440464603767396C15.86901169338379,7.626114603767395,18.12343759338379,5.317584503767395,20.93778759338379,5.284212841767395C20.97806759338379,5.283735191767395,21.018347593383787,5.283735191767395,21.05863759338379,5.284212841767395C21.05863759338379,5.284212841767395,21.05863759338379,5.284212841767395,21.05863759338379,5.284212841767395Z" fill-rule="evenodd" fill="#307AF2" fill-opacity="1"/></g><g transform="matrix(0.7071067690849304,0.7071067690849304,-0.7071067690849304,0.7071067690849304,8.390127452846173,-9.69123168043393)"><path d="M21.181535451049804,5.2825309919951176C21.181535451049804,5.2825309919951176,26.266615451049805,5.342828219995117,26.266615451049805,5.342828219995117C26.266615451049805,5.342828219995117,26.390315451049805,15.779063619995117,26.390315451049805,15.779063619995117C26.390315451049805,15.779063619995117,15.954087551049804,15.655363619995118,15.954087551049804,15.655363619995118C15.954087551049804,15.655363619995118,15.893790542049805,10.570273619995117,15.893790542049805,10.570273619995117C15.859567851049805,7.684153619995117,18.171485451049804,5.316753719995117,21.057605451049803,5.2825309919951176C21.098905451049806,5.282041161995117,21.140225451049805,5.282041161995117,21.181535451049804,5.2825309919951176C21.181535451049804,5.2825309919951176,21.181535451049804,5.2825309919951176,21.181535451049804,5.2825309919951176Z" fill-rule="evenodd" fill="#0057FE" fill-opacity="1"/></g></g></g></g></g></g></g></g></g></svg>